<svg viewBox="0 0 1848.28 491.9" xmlns="http://www.w3.org/2000/svg" xmlns:xlink="http://www.w3.org/1999/xlink"><linearGradient id="a" gradientUnits="userSpaceOnUse" x2="365.55" y1="306.89" y2="306.89"><stop offset="0" stop-color="#283fc7"/><stop offset="0" stop-color="#223dc8"/><stop offset="0" stop-color="#0f38ca"/><stop offset="0" stop-color="#0434cc"/><stop offset="0" stop-color="#03c"/><stop offset=".1" stop-color="#03c"/><stop offset=".12" stop-color="#03c"/><stop offset=".89" stop-color="#26d0ce"/><stop offset="1" stop-color="#26d0ce"/></linearGradient><linearGradient id="b" x1="28.04" x2="392.74" xlink:href="#a" y1="132.28" y2="132.28"/><linearGradient id="c" x1="179.55" x2="442.87" xlink:href="#a" y1="118.52" y2="118.52"/><linearGradient id="d" x1="507.45" x2="719.72" xlink:href="#a" y1="337.11" y2="337.11"/><linearGradient id="e" x1="752.6" x2="969.17" xlink:href="#a" y1="290.05" y2="290.05"/><linearGradient id="f" x1="998.6" x2="1236.65" xlink:href="#a" y1="204.88" y2="204.88"/><linearGradient id="g" x1="1290.77" x2="1531.02" xlink:href="#a" y1="278.81" y2="278.81"/><linearGradient id="h" x1="1585.14" x2="1848.28" xlink:href="#a" y1="208.4" y2="208.4"/><g fill-rule="evenodd"><path d="m171.46 112.8c107.2 0 194.09 86.9 194.09 194.09s-86.89 194.11-194.09 194.11c-6.58 0-13.1-.33-19.52-1 85.38-9.78 152.06-92.51 152.06-193.11q0-6.84-.41-13.56l-233.38-.43v64.1h145.08a113.73 113.73 0 1 1 -19.13-129.41h93.12c-24.21-62-75.94-106.77-137.34-113.82 6.42-.64 12.94-.97 19.52-.97z" fill="url(#a)" transform="translate(0 -9.9)"/><path d="m168 77.53a254.49 254.49 0 0 1 224.74 135.06c-24.17-92.43-108.23-160.59-208.23-160.59a214.61 214.61 0 0 0 -156.51 67.42 253.28 253.28 0 0 1 140-41.89z" fill="url(#b)" transform="translate(0 -9.9)"/><path d="m306.75 40.24a223.13 223.13 0 0 1 134 186.91 188.74 188.74 0 0 0 -261.2-201.85 222.07 222.07 0 0 1 127.2 14.94z" fill="url(#c)" transform="translate(0 -9.9)"/></g><path d="m719.72 382.55q0 14.82-1 26.1a181.79 181.79 0 0 1 -2.69 19.88q-5.16 23.63-20.2 40.61-28.35 32.66-78 32.65-41.89 0-69-22.56-27.83-23.23-32.15-64.23h48.56q2.79 15.48 9.24 23.85 15 19.55 43.83 19.55 53.07 0 53.07-65.1v-29.23q-28.8 29.44-66.39 29.44-42.75 0-70-30.94-27.51-31.36-27.5-78.42 0-45.76 25.56-77.78 27.51-33.94 72.62-34 39.54 0 65.75 29.44v-23.59h48.34zm-46.41-99.26q0-30.51-16.32-48.78-16.56-18.69-42.33-18.69-27.51 0-43.4 20.41-14.4 18.27-14.4 47.27 0 28.58 14.4 46.84 15.68 20 43.4 20t43.83-20.2q14.82-18.27 14.82-46.85z" fill="url(#d)" transform="translate(0 -9.9)"/><path d="m806.74 178.22 54.14 117.53 53.93-117.53h54.36l-108.72 223.67-107.85-223.67z" fill="url(#e)" transform="translate(0 -9.9)"/><path d="m998.6 22.27h79.64v168.09q16.27-19.8 33-26.62t39.16-6.82q42.67 0 64.46 23.54t21.79 63.54v143.49h-79.65v-114q0-17.17-2.64-27.73t-8.8-16.28q-10.56-9.24-25.52-9.24-20.25 0-31 12.1t-10.79 34.54v120.61h-79.65z" fill="url(#f)" transform="translate(0 -9.9)"/><path d="m1370.41 161.76v127.17q0 41.81 40.49 41.8t40.48-41.8v-127.17h79.62v142.57q0 45.76-30.14 68.64t-90 22.88q-59.85 0-90-22.88t-30.14-68.64v-142.57z" fill="url(#g)" transform="translate(0 -9.9)"/><path d="m1664.79 22.27v161.93q28.15-29.47 70.4-29.48 25.08 0 46 9.46a108.78 108.78 0 0 1 35.65 25.52 117.92 117.92 0 0 1 23.1 37.84 133.29 133.29 0 0 1 -.22 93.51 116.84 116.84 0 0 1 -24 38.28 114.33 114.33 0 0 1 -36.31 25.74 108 108 0 0 1 -45.1 9.46q-44 0-69.52-32.12v25.08h-79.65v-365.22zm100.32 253a51.56 51.56 0 0 0 -15-36.53 54.77 54.77 0 0 0 -16.28-11.22 48.65 48.65 0 0 0 -20.24-4.18 49.73 49.73 0 0 0 -19.8 4 48.94 48.94 0 0 0 -16.06 11 56 56 0 0 0 -11 16.5 49 49 0 0 0 -4.18 20 49.74 49.74 0 0 0 4 19.81 48.89 48.89 0 0 0 11 16.06 55.91 55.91 0 0 0 16.5 11 48.91 48.91 0 0 0 20 4.18 49.73 49.73 0 0 0 19.8-4 49 49 0 0 0 16.06-11 56.83 56.83 0 0 0 11-16.28 46.39 46.39 0 0 0 4.2-19.32z" fill="url(#h)" transform="translate(0 -9.9)"/></svg>